<svg width="183" height="30" viewBox="0 0 183 30" fill="none" xmlns="http://www.w3.org/2000/svg">
<path d="M12.536 23.384C10.7653 23.384 9.12267 23.096 7.608 22.52C6.11467 21.944 4.81333 21.1333 3.704 20.088C2.616 19.0427 1.76267 17.816 1.144 16.408C0.546667 15 0.248 13.464 0.248 11.8C0.248 10.136 0.546667 8.6 1.144 7.192C1.76267 5.784 2.62667 4.55733 3.736 3.512C4.84533 2.46667 6.14667 1.656 7.64 1.08C9.13333 0.503999 10.7547 0.216 12.504 0.216C14.2747 0.216 15.896 0.503999 17.368 1.08C18.8613 1.656 20.152 2.46667 21.24 3.512C22.3493 4.55733 23.2133 5.784 23.832 7.192C24.4507 8.57867 24.76 10.1147 24.76 11.8C24.76 13.464 24.4507 15.0107 23.832 16.44C23.2133 17.848 22.3493 19.0747 21.24 20.12C20.152 21.144 18.8613 21.944 17.368 22.52C15.896 23.096 14.2853 23.384 12.536 23.384ZM12.504 18.968C13.5067 18.968 14.424 18.7973 15.256 18.456C16.1093 18.1147 16.856 17.624 17.496 16.984C18.136 16.344 18.6267 15.5867 18.968 14.712C19.3307 13.8373 19.512 12.8667 19.512 11.8C19.512 10.7333 19.3307 9.76267 18.968 8.888C18.6267 8.01333 18.136 7.256 17.496 6.616C16.8773 5.976 16.1413 5.48533 15.288 5.144C14.4347 4.80267 13.5067 4.632 12.504 4.632C11.5013 4.632 10.5733 4.80267 9.72 5.144C8.888 5.48533 8.152 5.976 7.512 6.616C6.872 7.256 6.37067 8.01333 6.008 8.888C5.66667 9.76267 5.496 10.7333 5.496 11.8C5.496 12.8453 5.66667 13.816 6.008 14.712C6.37067 15.5867 6.86133 16.344 7.48 16.984C8.12 17.624 8.86667 18.1147 9.72 18.456C10.5733 18.7973 11.5013 18.968 12.504 18.968ZM38.768 5.528C40.1333 5.528 41.3493 5.80533 42.416 6.36C43.504 6.89333 44.3573 7.72533 44.976 8.856C45.5947 9.96533 45.904 11.3947 45.904 13.144V23H40.912V13.912C40.912 12.5253 40.6027 11.5013 39.984 10.84C39.3867 10.1787 38.5333 9.848 37.424 9.848C36.6347 9.848 35.92 10.0187 35.28 10.36C34.6613 10.68 34.1707 11.1813 33.808 11.864C33.4667 12.5467 33.296 13.4213 33.296 14.488V23H28.304V5.784H33.072V10.552L32.176 9.112C32.7947 7.96 33.68 7.07467 34.832 6.456C35.984 5.83733 37.296 5.528 38.768 5.528ZM59.098 23.256C57.1353 23.256 55.4073 22.872 53.914 22.104C52.442 21.336 51.3007 20.2907 50.49 18.968C49.6793 17.624 49.274 16.0987 49.274 14.392C49.274 12.664 49.6687 11.1387 50.458 9.816C51.2687 8.472 52.3673 7.42667 53.754 6.68C55.1407 5.912 56.7087 5.528 58.458 5.528C60.1433 5.528 61.658 5.89067 63.002 6.616C64.3673 7.32 65.4447 8.344 66.234 9.688C67.0233 11.0107 67.418 12.6 67.418 14.456C67.418 14.648 67.4073 14.872 67.386 15.128C67.3647 15.3627 67.3433 15.5867 67.322 15.8H53.338V12.888H64.698L62.778 13.752C62.778 12.856 62.5967 12.0773 62.234 11.416C61.8713 10.7547 61.37 10.2427 60.73 9.88C60.09 9.496 59.3433 9.304 58.49 9.304C57.6367 9.304 56.8793 9.496 56.218 9.88C55.578 10.2427 55.0767 10.7653 54.714 11.448C54.3513 12.1093 54.17 12.8987 54.17 13.816V14.584C54.17 15.5227 54.3727 16.3547 54.778 17.08C55.2047 17.784 55.7913 18.328 56.538 18.712C57.306 19.0747 58.202 19.256 59.226 19.256C60.1433 19.256 60.9433 19.1173 61.626 18.84C62.33 18.5627 62.97 18.1467 63.546 17.592L66.202 20.472C65.4127 21.368 64.4207 22.0613 63.226 22.552C62.0313 23.0213 60.6553 23.256 59.098 23.256ZM78.4535 23.384C76.6615 23.384 74.9442 23.1493 73.3015 22.68C71.6588 22.1893 70.3362 21.56 69.3335 20.792L71.0935 16.888C72.0535 17.5707 73.1842 18.136 74.4855 18.584C75.8082 19.0107 77.1415 19.224 78.4855 19.224C79.5095 19.224 80.3308 19.128 80.9495 18.936C81.5895 18.7227 82.0588 18.4347 82.3575 18.072C82.6562 17.7093 82.8055 17.2933 82.8055 16.824C82.8055 16.2267 82.5708 15.7573 82.1015 15.416C81.6322 15.0533 81.0135 14.7653 80.2455 14.552C79.4775 14.3173 78.6242 14.104 77.6855 13.912C76.7682 13.6987 75.8402 13.4427 74.9015 13.144C73.9842 12.8453 73.1415 12.4613 72.3735 11.992C71.6055 11.5227 70.9762 10.904 70.4855 10.136C70.0162 9.368 69.7815 8.38667 69.7815 7.192C69.7815 5.912 70.1228 4.74933 70.8055 3.704C71.5095 2.63733 72.5548 1.79467 73.9415 1.176C75.3495 0.535999 77.1095 0.216 79.2215 0.216C80.6295 0.216 82.0162 0.386666 83.3815 0.727999C84.7468 1.048 85.9522 1.53867 86.9975 2.2L85.3975 6.136C84.3522 5.53867 83.3068 5.10133 82.2615 4.824C81.2162 4.52533 80.1922 4.376 79.1895 4.376C78.1868 4.376 77.3655 4.49333 76.7255 4.728C76.0855 4.96267 75.6268 5.272 75.3495 5.656C75.0722 6.01867 74.9335 6.44533 74.9335 6.936C74.9335 7.512 75.1682 7.98133 75.6375 8.344C76.1068 8.68533 76.7255 8.96267 77.4935 9.176C78.2615 9.38933 79.1042 9.60267 80.0215 9.816C80.9602 10.0293 81.8882 10.2747 82.8055 10.552C83.7442 10.8293 84.5975 11.2027 85.3655 11.672C86.1335 12.1413 86.7522 12.76 87.2215 13.528C87.7122 14.296 87.9575 15.2667 87.9575 16.44C87.9575 17.6987 87.6055 18.8507 86.9015 19.896C86.1975 20.9413 85.1415 21.784 83.7335 22.424C82.3468 23.064 80.5868 23.384 78.4535 23.384ZM98.4118 23.256C96.9824 23.256 95.7024 22.9787 94.5718 22.424C93.4624 21.8693 92.5984 21.0267 91.9798 19.896C91.3611 18.744 91.0518 17.2827 91.0518 15.512V5.784H96.0438V14.776C96.0438 16.2053 96.3424 17.2613 96.9398 17.944C97.5584 18.6053 98.4224 18.936 99.5318 18.936C100.3 18.936 100.982 18.776 101.58 18.456C102.177 18.1147 102.646 17.6027 102.988 16.92C103.329 16.216 103.5 15.3413 103.5 14.296V5.784H108.492V23H103.756V18.264L104.62 19.64C104.044 20.8347 103.19 21.7413 102.06 22.36C100.95 22.9573 99.7344 23.256 98.4118 23.256ZM113.117 23V5.784H117.885V10.648L117.213 9.24C117.725 8.024 118.546 7.10667 119.677 6.488C120.807 5.848 122.183 5.528 123.805 5.528V10.136C123.591 10.1147 123.399 10.104 123.229 10.104C123.058 10.0827 122.877 10.072 122.685 10.072C121.319 10.072 120.21 10.4667 119.357 11.256C118.525 12.024 118.109 13.2293 118.109 14.872V23H113.117ZM132.039 23L124.806 5.784H129.959L135.975 20.6H133.415L139.655 5.784H144.455L137.191 23H132.039ZM154.567 23.256C152.604 23.256 150.876 22.872 149.383 22.104C147.911 21.336 146.769 20.2907 145.959 18.968C145.148 17.624 144.743 16.0987 144.743 14.392C144.743 12.664 145.137 11.1387 145.927 9.816C146.737 8.472 147.836 7.42667 149.223 6.68C150.609 5.912 152.177 5.528 153.927 5.528C155.612 5.528 157.127 5.89067 158.471 6.616C159.836 7.32 160.913 8.344 161.703 9.688C162.492 11.0107 162.887 12.6 162.887 14.456C162.887 14.648 162.876 14.872 162.855 15.128C162.833 15.3627 162.812 15.5867 162.791 15.8H148.807V12.888H160.167L158.247 13.752C158.247 12.856 158.065 12.0773 157.703 11.416C157.34 10.7547 156.839 10.2427 156.199 9.88C155.559 9.496 154.812 9.304 153.959 9.304C153.105 9.304 152.348 9.496 151.687 9.88C151.047 10.2427 150.545 10.7653 150.183 11.448C149.82 12.1093 149.639 12.8987 149.639 13.816V14.584C149.639 15.5227 149.841 16.3547 150.247 17.08C150.673 17.784 151.26 18.328 152.007 18.712C152.775 19.0747 153.671 19.256 154.695 19.256C155.612 19.256 156.412 19.1173 157.095 18.84C157.799 18.5627 158.439 18.1467 159.015 17.592L161.671 20.472C160.881 21.368 159.889 22.0613 158.695 22.552C157.5 23.0213 156.124 23.256 154.567 23.256ZM168.074 29.464C167.178 29.464 166.292 29.3253 165.418 29.048C164.543 28.7707 163.828 28.3867 163.274 27.896L165.098 24.344C165.482 24.6853 165.919 24.952 166.41 25.144C166.922 25.336 167.423 25.432 167.914 25.432C168.618 25.432 169.172 25.2613 169.578 24.92C170.004 24.6 170.388 24.056 170.73 23.288L171.626 21.176L172.01 20.632L178.186 5.784H182.986L175.21 24.056C174.655 25.4427 174.015 26.5307 173.29 27.32C172.586 28.1093 171.796 28.664 170.922 28.984C170.068 29.304 169.119 29.464 168.074 29.464ZM171.018 23.672L163.338 5.784H168.49L174.442 20.184L171.018 23.672Z" fill="#FEA200"/>
</svg>
