<svg width="79" height="77" viewBox="0 0 79 77" fill="none" xmlns="http://www.w3.org/2000/svg">
<path d="M15.2 67.0375C16.2313 63.6051 18.3415 60.5966 21.2177 58.4582C24.0939 56.3199 27.5827 55.1656 31.1667 55.1667H47.8333C51.4219 55.1654 54.915 56.3225 57.7933 58.4658C60.6715 60.6091 62.7811 63.6241 63.8083 67.0625M2 38.5C2 43.4246 2.96997 48.3009 4.85452 52.8506C6.73907 57.4003 9.5013 61.5343 12.9835 65.0165C16.4657 68.4987 20.5997 71.2609 25.1494 73.1455C29.6991 75.03 34.5754 76 39.5 76C44.4246 76 49.3009 75.03 53.8506 73.1455C58.4003 71.2609 62.5343 68.4987 66.0165 65.0165C69.4987 61.5343 72.2609 57.4003 74.1455 52.8506C76.03 48.3009 77 43.4246 77 38.5C77 33.5754 76.03 28.6991 74.1455 24.1494C72.2609 19.5997 69.4987 15.4657 66.0165 11.9835C62.5343 8.5013 58.4003 5.73907 53.8506 3.85452C49.3009 1.96997 44.4246 1 39.5 1C34.5754 1 29.6991 1.96997 25.1494 3.85452C20.5997 5.73907 16.4657 8.5013 12.9835 11.9835C9.5013 15.4657 6.73907 19.5997 4.85452 24.1494C2.96997 28.6991 2 33.5754 2 38.5ZM27 30.1667C27 33.4819 28.317 36.6613 30.6612 39.0055C33.0054 41.3497 36.1848 42.6667 39.5 42.6667C42.8152 42.6667 45.9946 41.3497 48.3388 39.0055C50.683 36.6613 52 33.4819 52 30.1667C52 26.8515 50.683 23.672 48.3388 21.3278C45.9946 18.9836 42.8152 17.6667 39.5 17.6667C36.1848 17.6667 33.0054 18.9836 30.6612 21.3278C28.317 23.672 27 26.8515 27 30.1667Z" stroke="black" stroke-width="2" stroke-linecap="round" stroke-linejoin="round"/>
</svg>
